<?xml version="1.0" standalone="no"?><!DOCTYPE svg PUBLIC "-//W3C//DTD SVG 1.1//EN" "http://www.w3.org/Graphics/SVG/1.1/DTD/svg11.dtd"><svg t="1718086266274" class="icon" viewBox="0 0 1024 1024" version="1.1" xmlns="http://www.w3.org/2000/svg" p-id="15819" xmlns:xlink="http://www.w3.org/1999/xlink" width="64" height="64"><path d="M794.453333 141.568c16.554667 0 30.293333 12.373333 32.426667 28.330667l0.298667 4.437333V297.813333c0 16.554667-12.330667 30.293333-28.288 32.426667l-4.437334 0.298667h-123.477333a32.725333 32.725333 0 0 1-4.437333-65.194667l4.437333-0.298667h41.728a316.544 316.544 0 1 0 112.810667 186.752 32.725333 32.725333 0 1 1 64.298666-12.373333 381.952 381.952 0 1 1-645.12-197.546667 381.994667 381.994667 0 0 1 516.992-21.333333V174.378667c0-18.090667 14.677333-32.768 32.768-32.768z" fill="#212121" p-id="15820"></path></svg>